<?xml version="1.0" encoding="UTF-8" standalone="no"?>
<!-- Created with Inkscape (http://www.inkscape.org/) -->

<svg
   width="22"
   height="22"
   viewBox="0 0 5.8208332 5.8208333"
   version="1.1"
   id="svg17622"
   inkscape:export-filename="temp4.svg"
   inkscape:export-xdpi="96"
   inkscape:export-ydpi="96"
   sodipodi:docname="temp3.svg"
   xml:space="preserve"
   inkscape:version="1.2.2 (b0a8486541, 2022-12-01)"
   xmlns:inkscape="http://www.inkscape.org/namespaces/inkscape"
   xmlns:sodipodi="http://sodipodi.sourceforge.net/DTD/sodipodi-0.dtd"
   xmlns="http://www.w3.org/2000/svg"
   xmlns:svg="http://www.w3.org/2000/svg"><sodipodi:namedview
     id="namedview17624"
     pagecolor="#ffffff"
     bordercolor="#000000"
     borderopacity="0.25"
     inkscape:showpageshadow="2"
     inkscape:pageopacity="0.0"
     inkscape:pagecheckerboard="0"
     inkscape:deskcolor="#d1d1d1"
     inkscape:document-units="px"
     showgrid="false"
     inkscape:zoom="44.5"
     inkscape:cx="10.988764"
     inkscape:cy="11"
     inkscape:window-width="1920"
     inkscape:window-height="1052"
     inkscape:window-x="0"
     inkscape:window-y="0"
     inkscape:window-maximized="1"
     inkscape:current-layer="layer1" /><defs
     id="defs17619" /><g
     inkscape:label="Camada 1"
     inkscape:groupmode="layer"
     id="layer1"><path
       style="color:#fcfcfc;fill:currentColor;fill-opacity:1;stroke:none;stroke-width:0.264583"
       class="ColorScheme-Text"
       d="m 3.1750001,0.52916678 c -0.2931584,0 -0.5291667,0.2360083 -0.5291667,0.52916662 v 2.8484049 c -0.1682382,0.1504768 -0.264456,0.3654631 -0.2645833,0.5911784 0,0.438376 0.355374,0.79375 0.79375,0.79375 0.4383759,0 0.7937499,-0.355374 0.7937499,-0.79375 C 3.9684855,4.2723816 3.8722711,4.0576117 3.7041667,3.907255 V 1.0583334 c 0,-0.29315832 -0.2360083,-0.52916662 -0.5291666,-0.52916662 z m 0,0.2645833 c 0.1465791,0 0.2645833,0.1180042 0.2645833,0.26458332 V 3.7501587 3.96875 4.0385132 C 3.6032573,4.1310391 3.704108,4.3020126 3.7041667,4.4870645 3.7039804,4.77309 3.4671191,5.0048626 3.1750001,5.0048626 2.882881,5.0048626 2.6460197,4.77309 2.6458334,4.4870645 2.6457035,4.3018282 2.7465796,4.1306147 2.9104167,4.0379965 V 3.96875 3.749642 1.0583334 c 0,-0.14657912 0.1180042,-0.26458332 0.2645834,-0.26458332 z M 1.8520834,1.3229167 V 1.5875001 H 2.3812501 V 1.3229167 Z m 0,0.79375 V 2.3812501 H 2.3812501 V 2.1166667 Z m 0,0.79375 V 3.175 H 2.3812501 V 2.9104167 Z m 1.3229167,1.3229167 c -0.1461254,0 -0.2645834,0.1184579 -0.2645834,0.2645833 0,0.1461254 0.118458,0.2645833 0.2645834,0.2645833 0.1461254,0 0.2645833,-0.1184579 0.2645833,-0.2645833 0,-0.1461254 -0.1184579,-0.2645833 -0.2645833,-0.2645833 z"
       id="path9554" /><path
       fill="#da4453"
       d="m 2.6458328,2.3413733 v 2.5425044 l 0.5291667,0.181608 0.5291666,-0.181608 V 2.3413733 Z"
       id="path9538"
       style="fill:#f7d124;fill-opacity:1;stroke-width:0.219204" /><path
       style="color:#fcfcfc;fill:currentColor;fill-opacity:1;stroke:none;stroke-width:0.264583"
       class="ColorScheme-Text"
       d="m 3.1749995,0.52916678 c -0.2931584,0 -0.5291667,0.2360083 -0.5291667,0.52916652 V 3.9067382 C 2.4775946,4.0572147 2.3813767,4.2722017 2.3812495,4.4979167 c 0,0.438376 0.355374,0.79375 0.79375,0.79375 0.4383759,0 0.7937499,-0.355374 0.7937499,-0.79375 C 3.9684849,4.2723817 3.8722705,4.0576117 3.7041661,3.907255 V 1.0583333 c 0,-0.29315822 -0.2360083,-0.52916652 -0.5291666,-0.52916652 z m 0,0.2645833 c 0.1465791,0 0.2645833,0.1180042 0.2645833,0.26458322 v 2.6918253 0.2185911 0.06976 c 0.1636739,0.09253 0.2645246,0.2635 0.2645833,0.448552 -1.863e-4,0.286025 -0.2370476,0.517798 -0.5291666,0.517798 -0.2921191,0 -0.5289804,-0.231773 -0.5291667,-0.517798 -1.299e-4,-0.185237 0.1007462,-0.35645 0.2645833,-0.449068 V 3.9687497 3.7496419 1.0583333 c 0,-0.14657902 0.1180042,-0.26458322 0.2645834,-0.26458322 z M 1.8520828,1.3229166 V 1.5875 H 2.3812495 V 1.3229166 Z m 0,0.79375 V 2.38125 H 2.3812495 V 2.1166666 Z m 0,0.79375 V 3.175 H 2.3812495 V 2.9104166 Z m 1.3229167,1.3229171 c -0.1461255,0 -0.2645834,0.118458 -0.2645834,0.264583 0,0.146125 0.1184579,0.264583 0.2645834,0.264583 0.1461254,0 0.2645833,-0.118458 0.2645833,-0.264583 0,-0.146125 -0.1184579,-0.264583 -0.2645833,-0.264583 z"
       id="path9540" /></g></svg>
