<?xml version="1.0" encoding="UTF-8" standalone="no"?>
<!-- Created with Inkscape (http://www.inkscape.org/) -->

<svg
   width="22"
   height="22"
   viewBox="0 0 5.8208332 5.8208333"
   version="1.1"
   id="svg17622"
   inkscape:export-filename="temp2.svg"
   inkscape:export-xdpi="96"
   inkscape:export-ydpi="96"
   sodipodi:docname="temp2.svg"
   inkscape:version="1.2.2 (b0a8486541, 2022-12-01)"
   xmlns:inkscape="http://www.inkscape.org/namespaces/inkscape"
   xmlns:sodipodi="http://sodipodi.sourceforge.net/DTD/sodipodi-0.dtd"
   xmlns="http://www.w3.org/2000/svg"
   xmlns:svg="http://www.w3.org/2000/svg">
  <sodipodi:namedview
     id="namedview17624"
     pagecolor="#ffffff"
     bordercolor="#000000"
     borderopacity="0.25"
     inkscape:showpageshadow="2"
     inkscape:pageopacity="0.0"
     inkscape:pagecheckerboard="0"
     inkscape:deskcolor="#d1d1d1"
     inkscape:document-units="px"
     showgrid="false"
     inkscape:zoom="85.818182"
     inkscape:cx="9.6599576"
     inkscape:cy="17.62447"
     inkscape:window-width="1920"
     inkscape:window-height="1052"
     inkscape:window-x="0"
     inkscape:window-y="0"
     inkscape:window-maximized="1"
     inkscape:current-layer="layer1" />
  <defs
     id="defs17619" />
  <g
     inkscape:label="Camada 1"
     inkscape:groupmode="layer"
     id="layer1">
    <path
       fill="#da4453"
       d="m 2.6458332,3.0928376 v 1.8452542 l 0.5291667,0.131804 0.5291666,-0.131804 V 3.0928376 Z"
       id="path3"
       style="fill:#3cb34b;fill-opacity:1;stroke-width:0.186744" />
    <path
       style="color:#fcfcfc;fill:currentColor;fill-opacity:1;stroke:none;stroke-width:0.264583"
       class="ColorScheme-Text"
       d="m 3.1749999,0.52916667 c -0.2931584,0 -0.5291667,0.2360083 -0.5291667,0.52916663 V 3.9067382 C 2.477595,4.057215 2.3813771,4.2722014 2.3812499,4.4979166 c 0,0.438376 0.355374,0.79375 0.79375,0.79375 0.4383759,0 0.79375,-0.355374 0.79375,-0.79375 C 3.9684853,4.2723815 3.8722709,4.0576116 3.7041665,3.907255 V 1.0583333 c 0,-0.29315833 -0.2360083,-0.52916663 -0.5291666,-0.52916663 z m 0,0.2645833 c 0.1465791,0 0.2645833,0.1180042 0.2645833,0.26458333 V 3.7501586 3.96875 4.038513 c 0.1636739,0.092526 0.2645246,0.2634993 0.2645833,0.4485513 -1.862e-4,0.2860254 -0.2370476,0.517798 -0.5291666,0.517798 -0.2921191,0 -0.5289804,-0.2317726 -0.5291667,-0.517798 C 2.6457033,4.3018281 2.7465794,4.1306146 2.9104165,4.0379964 V 3.96875 3.7496419 1.0583333 c 0,-0.14657913 0.1180042,-0.26458333 0.2645834,-0.26458333 z M 1.8520832,1.3229167 V 1.5875 H 2.3812499 V 1.3229167 Z m 0,0.7937499 V 2.38125 H 2.3812499 V 2.1166666 Z m 0,0.79375 V 3.175 H 2.3812499 V 2.9104166 Z m 1.3229167,1.3229167 c -0.1461254,0 -0.2645834,0.1184579 -0.2645834,0.2645833 0,0.1461254 0.118458,0.2645833 0.2645834,0.2645833 0.1461254,0 0.2645833,-0.1184579 0.2645833,-0.2645833 0,-0.1461254 -0.1184579,-0.2645833 -0.2645833,-0.2645833 z"
       id="path5" />
  </g>
</svg>
