<?xml version="1.0" encoding="UTF-8" standalone="no"?>
<!-- Created with Inkscape (http://www.inkscape.org/) -->

<svg
   width="22"
   height="22"
   viewBox="0 0 5.8208332 5.8208333"
   version="1.1"
   id="svg17622"
   inkscape:export-filename="temp3.svg"
   inkscape:export-xdpi="96"
   inkscape:export-ydpi="96"
   xmlns:inkscape="http://www.inkscape.org/namespaces/inkscape"
   xmlns:sodipodi="http://sodipodi.sourceforge.net/DTD/sodipodi-0.dtd"
   xmlns="http://www.w3.org/2000/svg"
   xmlns:svg="http://www.w3.org/2000/svg">
  <sodipodi:namedview
     id="namedview17624"
     pagecolor="#ffffff"
     bordercolor="#000000"
     borderopacity="0.25"
     inkscape:showpageshadow="2"
     inkscape:pageopacity="0.0"
     inkscape:pagecheckerboard="0"
     inkscape:deskcolor="#d1d1d1"
     inkscape:document-units="px"
     showgrid="false" />
  <defs
     id="defs17619" />
  <g
     inkscape:label="Camada 1"
     inkscape:groupmode="layer"
     id="layer1">
    <path
       fill="#da4453"
       d="M 2.8471689,0.78476771 2.6458334,4.4870645 V 4.9918054 L 3.1750001,5.2916667 3.7041667,4.9918054 V 4.4870645 L 3.4773896,0.79302748 Z"
       id="path9552"
       style="fill:#ee1b24;fill-opacity:1;stroke-width:0.28167"
       sodipodi:nodetypes="cccccccc" />
    <path
       style="color:#fcfcfc;fill:currentColor;fill-opacity:1;stroke:none;stroke-width:0.264583"
       class="ColorScheme-Text"
       d="m 3.1750001,0.52916678 c -0.2931584,0 -0.5291667,0.2360083 -0.5291667,0.52916662 v 2.8484049 c -0.1682382,0.1504768 -0.264456,0.3654631 -0.2645833,0.5911784 0,0.438376 0.355374,0.79375 0.79375,0.79375 0.4383759,0 0.7937499,-0.355374 0.7937499,-0.79375 C 3.9684855,4.2723816 3.8722711,4.0576117 3.7041667,3.907255 V 1.0583334 c 0,-0.29315832 -0.2360083,-0.52916662 -0.5291666,-0.52916662 z m 0,0.2645833 c 0.1465791,0 0.2645833,0.1180042 0.2645833,0.26458332 V 3.7501587 3.96875 4.0385132 C 3.6032573,4.1310391 3.704108,4.3020126 3.7041667,4.4870645 3.7039804,4.77309 3.4671191,5.0048626 3.1750001,5.0048626 2.882881,5.0048626 2.6460197,4.77309 2.6458334,4.4870645 2.6457035,4.3018282 2.7465796,4.1306147 2.9104167,4.0379965 V 3.96875 3.749642 1.0583334 c 0,-0.14657912 0.1180042,-0.26458332 0.2645834,-0.26458332 z M 1.8520834,1.3229167 V 1.5875001 H 2.3812501 V 1.3229167 Z m 0,0.79375 V 2.3812501 H 2.3812501 V 2.1166667 Z m 0,0.79375 V 3.175 H 2.3812501 V 2.9104167 Z m 1.3229167,1.3229167 c -0.1461254,0 -0.2645834,0.1184579 -0.2645834,0.2645833 0,0.1461254 0.118458,0.2645833 0.2645834,0.2645833 0.1461254,0 0.2645833,-0.1184579 0.2645833,-0.2645833 0,-0.1461254 -0.1184579,-0.2645833 -0.2645833,-0.2645833 z"
       id="path9554" />
  </g>
</svg>
