<?xml version="1.0" encoding="UTF-8" standalone="no"?>
<!-- Created with Inkscape (http://www.inkscape.org/) -->

<svg
   width="22"
   height="22"
   viewBox="0 0 5.8208332 5.8208333"
   version="1.1"
   id="svg17622"
   sodipodi:docname="temp0.svg"
   inkscape:version="1.2.2 (b0a8486541, 2022-12-01)"
   xmlns:inkscape="http://www.inkscape.org/namespaces/inkscape"
   xmlns:sodipodi="http://sodipodi.sourceforge.net/DTD/sodipodi-0.dtd"
   xmlns="http://www.w3.org/2000/svg"
   xmlns:svg="http://www.w3.org/2000/svg">
  <sodipodi:namedview
     id="namedview17624"
     pagecolor="#000000"
     bordercolor="#000000"
     borderopacity="0.25"
     inkscape:showpageshadow="2"
     inkscape:pageopacity="0"
     inkscape:pagecheckerboard="0"
     inkscape:deskcolor="#d1d1d1"
     inkscape:document-units="px"
     showgrid="false"
     inkscape:zoom="39.590909"
     inkscape:cx="7.1354765"
     inkscape:cy="13.601607"
     inkscape:window-width="1920"
     inkscape:window-height="1052"
     inkscape:window-x="0"
     inkscape:window-y="0"
     inkscape:window-maximized="1"
     inkscape:current-layer="layer1" />
  <defs
     id="defs17619" />
  <g
     inkscape:label="Camada 1"
     inkscape:groupmode="layer"
     id="layer1">
    <path
       style="color:#fcfcfc;fill:currentColor;fill-opacity:1;stroke:none;stroke-width:0.264583"
       class="ColorScheme-Text"
       d="m 2.9076818,0.52916661 c -0.2931583,0 -0.5291655,0.2360084 -0.5291655,0.52916669 V 3.9067382 C 2.2102757,4.0572149 2.11406,4.2722013 2.113933,4.4979166 c 0,0.4383759 0.3553729,0.79375 0.7937488,0.79375 0.438376,0 0.79375,-0.3553741 0.79375,-0.79375 C 3.7011673,4.2723815 3.6049528,4.0576115 3.4368485,3.9072549 V 1.0583333 c 0,-0.29315829 -0.2360083,-0.52916669 -0.5291667,-0.52916669 z m 0,0.2645833 c 0.1465792,0 0.2645834,0.1180042 0.2645834,0.26458339 v 2.6918253 0.2185913 0.069763 C 3.3359391,4.131039 3.4367898,4.3020125 3.4368485,4.4870644 3.4366622,4.7730898 3.1998009,5.0048625 2.9076818,5.0048625 2.6155628,5.0048625 2.3787014,4.7730898 2.3785163,4.4870644 2.3783867,4.301828 2.4792614,4.1306146 2.6430985,4.0379964 V 3.9687499 3.7496418 1.0583333 c 0,-0.14657919 0.1180042,-0.26458339 0.2645833,-0.26458339 z M 1.5847663,1.3229166 V 1.5874999 H 2.113933 V 1.3229166 Z m 0,0.79375 V 2.3812499 H 2.113933 V 2.1166666 Z m 0,0.79375 V 3.1749999 H 2.113933 V 2.9104166 Z m 1.3229155,1.3229166 c -0.1461254,0 -0.2645833,0.118458 -0.2645833,0.2645834 0,0.1461254 0.1184579,0.2645833 0.2645833,0.2645833 0.1461254,0 0.2645834,-0.1184579 0.2645834,-0.2645833 0,-0.1461254 -0.118458,-0.2645834 -0.2645834,-0.2645834 z"
       id="path2463" />
  </g>
</svg>
